<svg xmlns="http://www.w3.org/2000/svg" width="16" height="21" viewBox="0 0 16 21">
  <g id="Group_151110" data-name="Group 151110" transform="translate(0 -0.414)">
    <rect id="Rectangle_6907" data-name="Rectangle 6907" width="16" height="21" transform="translate(0 0.414)" fill="#007fb9"/>
    <g id="noun_report_414005" transform="translate(2.659 2.957)">
      <g id="Group_144548" data-name="Group 144548">
        <path id="Path_157048" data-name="Path 157048" d="M16.283,35.381l-.626-.609-.413.448,1.088,1.058,1.9-2.309-.459-.4Z" transform="translate(-15.244 -25.483)" fill="#fff"/>
        <path id="Path_157049" data-name="Path 157049" d="M16.283,22.987l-.626-.609-.413.448,1.088,1.058,1.9-2.309-.459-.4Z" transform="translate(-15.244 -17.166)" fill="#fff"/>
        <path id="Path_157050" data-name="Path 157050" d="M16.283,10.8l-.626-.609-.413.448L16.332,11.7l1.9-2.309-.459-.4Z" transform="translate(-15.244 -8.988)" fill="#fff"/>
        <path id="Path_157051" data-name="Path 157051" d="M16.283,47.527l-.626-.609-.413.448,1.088,1.058,1.9-2.309-.459-.4Z" transform="translate(-15.244 -33.633)" fill="#fff"/>
        <rect id="Rectangle_6897" data-name="Rectangle 6897" width="6.872" height="0.461" transform="translate(4.158 8.623)" fill="#fff"/>
        <rect id="Rectangle_6898" data-name="Rectangle 6898" width="6.872" height="0.461" transform="translate(4.158 9.777)" fill="#fff"/>
        <rect id="Rectangle_6899" data-name="Rectangle 6899" width="6.872" height="0.461" transform="translate(4.158 4.585)" fill="#fff"/>
        <rect id="Rectangle_6900" data-name="Rectangle 6900" width="6.872" height="0.461" transform="translate(4.158 5.739)" fill="#fff"/>
        <rect id="Rectangle_6901" data-name="Rectangle 6901" width="6.872" height="0.461" transform="translate(4.158 0.547)" fill="#fff"/>
        <rect id="Rectangle_6902" data-name="Rectangle 6902" width="6.872" height="0.461" transform="translate(4.158 1.701)" fill="#fff"/>
        <rect id="Rectangle_6903" data-name="Rectangle 6903" width="6.872" height="0.461" transform="translate(4.158 12.662)" fill="#fff"/>
        <rect id="Rectangle_6904" data-name="Rectangle 6904" width="6.872" height="0.461" transform="translate(4.158 13.816)" fill="#fff"/>
      </g>
    </g>
  </g>
</svg>
