<svg width="24" height="24" viewBox="0 0 24 24" fill="none" xmlns="http://www.w3.org/2000/svg">
<g clip-path="url(#clip0_677_418)">
<path d="M1.87305 17.625C1.87305 18.3212 2.14961 18.9889 2.64189 19.4812C3.13417 19.9734 3.80185 20.25 4.49805 20.25C5.19424 20.25 5.86192 19.9734 6.3542 19.4812C6.84649 18.9889 7.12305 18.3212 7.12305 17.625C7.12305 16.9288 6.84649 16.2611 6.3542 15.7688C5.86192 15.2766 5.19424 15 4.49805 15C3.80185 15 3.13417 15.2766 2.64189 15.7688C2.14961 16.2611 1.87305 16.9288 1.87305 17.625Z" stroke="#1356BF" stroke-width="1.5" stroke-linecap="round" stroke-linejoin="round"/>
<path d="M8.24805 23.25C7.88556 22.5703 7.34517 22.002 6.68465 21.6057C6.02414 21.2093 5.26833 21 4.49805 21C3.72776 21 2.97196 21.2093 2.31144 21.6057C1.65092 22.002 1.11053 22.5703 0.748047 23.25M16.873 17.625C16.873 17.9697 16.9409 18.3111 17.0729 18.6295C17.2048 18.948 17.3981 19.2374 17.6419 19.4812C17.8856 19.7249 18.175 19.9183 18.4935 20.0502C18.812 20.1821 19.1533 20.25 19.498 20.25C19.8428 20.25 20.1841 20.1821 20.5026 20.0502C20.8211 19.9183 21.1104 19.7249 21.3542 19.4812C21.598 19.2374 21.7913 18.948 21.9232 18.6295C22.0551 18.3111 22.123 17.9697 22.123 17.625C22.123 16.9288 21.8465 16.2611 21.3542 15.7688C20.8619 15.2766 20.1942 15 19.498 15C18.8019 15 18.1342 15.2766 17.6419 15.7688C17.1496 16.2611 16.873 16.9288 16.873 17.625Z" stroke="#1356BF" stroke-width="1.5" stroke-linecap="round" stroke-linejoin="round"/>
<path d="M23.2471 23.25C22.8846 22.5703 22.3442 22.002 21.6837 21.6057C21.0232 21.2093 20.2674 21 19.4971 21C18.7268 21 17.971 21.2093 17.3105 21.6057C16.65 22.002 16.1096 22.5703 15.7471 23.25M15.2461 8.25C14.8452 7.7796 14.347 7.40182 13.7859 7.14277C13.2248 6.88371 12.6141 6.74955 11.9961 6.74955C11.3781 6.74955 10.7674 6.88371 10.2063 7.14277C9.64515 7.40182 9.14695 7.7796 8.74609 8.25M9.04809 19.707C10.9634 20.4369 13.0813 20.4305 14.9921 19.689M6.34609 6C5.52527 6.76901 4.87101 7.69829 4.42379 8.73033C3.97657 9.76238 3.74591 10.8752 3.74609 12C3.74609 12.253 3.76109 12.5 3.78409 12.75M20.2091 12.75C20.2311 12.502 20.2471 12.25 20.2471 12C20.2473 10.8752 20.0166 9.76238 19.5694 8.73033C19.1222 7.69829 18.4679 6.76901 17.6471 6M9.37209 3.375C9.37209 3.71972 9.43999 4.06106 9.57191 4.37954C9.70383 4.69802 9.89719 4.9874 10.1409 5.23116C10.3847 5.47491 10.6741 5.66827 10.9926 5.80018C11.311 5.9321 11.6524 6 11.9971 6C12.3418 6 12.6832 5.9321 13.0016 5.80018C13.3201 5.66827 13.6095 5.47491 13.8532 5.23116C14.097 4.9874 14.2904 4.69802 14.4223 4.37954C14.5542 4.06106 14.6221 3.71972 14.6221 3.375C14.6221 2.67881 14.3455 2.01113 13.8532 1.51884C13.361 1.02656 12.6933 0.75 11.9971 0.75C11.3009 0.75 10.6332 1.02656 10.1409 1.51884C9.64866 2.01113 9.37209 2.67881 9.37209 3.375Z" stroke="#1356BF" stroke-width="1.5" stroke-linecap="round" stroke-linejoin="round"/>
</g>
<defs>
<clipPath id="clip0_677_418">
<rect width="24" height="24" fill="white"/>
</clipPath>
</defs>
</svg>
