<svg width="28" height="28" viewBox="0 0 28 28" fill="none" xmlns="http://www.w3.org/2000/svg">
<path d="M12.922 4.3698C13.1541 3.96835 13.536 3.67541 13.9839 3.55532C14.4317 3.43523 14.909 3.4978 15.3107 3.7293L19.25 6.0043C19.6519 6.23637 19.9452 6.6186 20.0653 7.0669C20.1854 7.51521 20.1226 7.99286 19.8905 8.3948L17.6663 12.25H19.25C19.4821 12.25 19.7046 12.3422 19.8687 12.5063C20.0328 12.6704 20.125 12.893 20.125 13.125C20.125 13.3571 20.0328 13.5797 19.8687 13.7438C19.7046 13.9079 19.4821 14 19.25 14H8.75C8.51794 14 8.29538 13.9079 8.13128 13.7438C7.96719 13.5797 7.875 13.3571 7.875 13.125C7.875 12.893 7.96719 12.6704 8.13128 12.5063C8.29538 12.3422 8.51794 12.25 8.75 12.25H9.93125C9.64368 11.9798 9.4559 11.6203 9.3984 11.2298C9.3409 10.8394 9.41706 10.441 9.6145 10.0993L12.922 4.3698ZM13.3368 12.25H15.645L18.375 7.5198L14.4375 5.2448L11.13 10.9743L13.3368 12.25ZM7.90125 8.75005H8.372L8.09725 9.2243C7.8575 9.6408 7.71225 10.0853 7.65625 10.535C7.46757 10.5902 7.30298 10.7074 7.189 10.8675L3.6995 15.75H24.3005L20.811 10.8675C20.7542 10.7876 20.6844 10.7178 20.6045 10.661L21.406 9.2698C21.4305 9.2278 21.4538 9.18463 21.476 9.1403C21.7739 9.3236 22.0321 9.56456 22.2355 9.84905L25.7617 14.784C26.0785 15.2303 26.25 15.764 26.25 16.31V21.875C26.25 22.5712 25.9734 23.2389 25.4812 23.7312C24.9889 24.2235 24.3212 24.5 23.625 24.5H4.375C3.67881 24.5 3.01113 24.2235 2.51884 23.7312C2.02656 23.2389 1.75 22.5712 1.75 21.875V16.31C1.75062 15.7633 1.92192 15.2305 2.24 14.7858L5.7645 9.8508C6.00709 9.51066 6.32737 9.23334 6.69871 9.04189C7.07004 8.85044 7.48346 8.75039 7.90125 8.75005ZM24.5 17.5H3.5V21.875C3.5 22.1071 3.59219 22.3297 3.75628 22.4938C3.92038 22.6579 4.14294 22.75 4.375 22.75H23.625C23.8571 22.75 24.0796 22.6579 24.2437 22.4938C24.4078 22.3297 24.5 22.1071 24.5 21.875V17.5Z" fill="#1356BF"/>
</svg>
