<svg width="49" height="49" viewBox="0 0 49 49" fill="none" xmlns="http://www.w3.org/2000/svg">
<g clip-path="url(#clip0_5020_11106)">
<circle cx="14.5" cy="19.5" r="4.5" fill="#74BAE9"/>
<circle cx="31.5" cy="19.5" r="4.5" fill="#74BAE9"/>
<path fill-rule="evenodd" clip-rule="evenodd" d="M14.8407 22.8948C15.82 22.8948 16.7591 22.5058 17.4516 21.8134C18.144 21.1209 18.533 20.1818 18.533 19.2025C18.533 18.2233 18.144 17.2841 17.4516 16.5917C16.7591 15.8992 15.82 15.5102 14.8407 15.5102C13.8614 15.5102 12.9223 15.8992 12.2299 16.5917C11.5374 17.2841 11.1484 18.2233 11.1484 19.2025C11.1484 20.1818 11.5374 21.1209 12.2299 21.8134C12.9223 22.5058 13.8614 22.8948 14.8407 22.8948ZM14.8407 24.741C16.3096 24.741 17.7183 24.1575 18.757 23.1188C19.7957 22.0801 20.3792 20.6714 20.3792 19.2025C20.3792 17.7336 19.7957 16.3249 18.757 15.2862C17.7183 14.2476 16.3096 13.6641 14.8407 13.6641C13.3718 13.6641 11.9631 14.2476 10.9244 15.2862C9.88576 16.3249 9.30225 17.7336 9.30225 19.2025C9.30225 20.6714 9.88576 22.0801 10.9244 23.1188C11.9631 24.1575 13.3718 24.741 14.8407 24.741Z" fill="#1356BF"/>
<path fill-rule="evenodd" clip-rule="evenodd" d="M12.725 22.703C12.811 22.7887 12.8792 22.8906 12.9257 23.0027C12.9722 23.1149 12.9962 23.2351 12.9962 23.3565C12.9962 23.4779 12.9722 23.5981 12.9257 23.7103C12.8792 23.8224 12.811 23.9243 12.725 24.01L12.101 24.6322C10.9001 25.8334 10.2255 27.4623 10.2253 29.1608V32.5873C10.2253 32.8321 10.1281 33.0669 9.95494 33.24C9.78183 33.4131 9.54704 33.5103 9.30223 33.5103C9.05741 33.5103 8.82262 33.4131 8.64951 33.24C8.4764 33.0669 8.37915 32.8321 8.37915 32.5873V29.1608C8.37941 26.9727 9.24866 24.8743 10.7958 23.327L11.4179 22.703C11.5037 22.617 11.6055 22.5488 11.7177 22.5023C11.8298 22.4557 11.95 22.4318 12.0715 22.4318C12.1929 22.4318 12.3131 22.4557 12.4252 22.5023C12.5374 22.5488 12.6393 22.617 12.725 22.703ZM34.4948 22.1491C34.4089 22.2349 34.3407 22.3367 34.2941 22.4489C34.2476 22.561 34.2237 22.6812 34.2237 22.8027C34.2237 22.9241 34.2476 23.0443 34.2941 23.1564C34.3407 23.2686 34.4089 23.3704 34.4948 23.4562L35.1188 24.0783C36.3197 25.2795 36.9944 26.9085 36.9945 28.607V32.5873C36.9945 32.8321 37.0918 33.0669 37.2649 33.24C37.438 33.4131 37.6728 33.5103 37.9176 33.5103C38.1624 33.5103 38.3972 33.4131 38.5703 33.24C38.7434 33.0669 38.8407 32.8321 38.8407 32.5873V28.607C38.8404 26.4189 37.9712 24.3204 36.4241 22.7731L35.8019 22.1491C35.7162 22.0632 35.6143 21.995 35.5022 21.9484C35.39 21.9019 35.2698 21.8779 35.1484 21.8779C35.027 21.8779 34.9067 21.9019 34.7946 21.9484C34.6825 21.995 34.5806 22.0632 34.4948 22.1491Z" fill="#1356BF"/>
<path fill-rule="evenodd" clip-rule="evenodd" d="M31.4562 22.8948C30.477 22.8948 29.5378 22.5058 28.8454 21.8134C28.1529 21.1209 27.7639 20.1818 27.7639 19.2025C27.7639 18.2233 28.1529 17.2841 28.8454 16.5917C29.5378 15.8992 30.477 15.5102 31.4562 15.5102C32.4355 15.5102 33.3747 15.8992 34.0671 16.5917C34.7595 17.2841 35.1485 18.2233 35.1485 19.2025C35.1485 20.1818 34.7595 21.1209 34.0671 21.8134C33.3747 22.5058 32.4355 22.8948 31.4562 22.8948ZM31.4562 24.741C29.9874 24.741 28.5786 24.1575 27.54 23.1188C26.5013 22.0801 25.9178 20.6714 25.9178 19.2025C25.9178 17.7336 26.5013 16.3249 27.54 15.2862C28.5786 14.2476 29.9874 13.6641 31.4562 13.6641C32.9251 13.6641 34.3339 14.2476 35.3725 15.2862C36.4112 16.3249 36.9947 17.7336 36.9947 19.2025C36.9947 20.6714 36.4112 22.0801 35.3725 23.1188C34.3339 24.1575 32.9251 24.741 31.4562 24.741ZM23.1486 30.741C21.9245 30.741 20.7505 31.2272 19.885 32.0928C19.0194 32.9584 18.5332 34.1323 18.5332 35.3564V37.7564C18.5332 38.0012 18.4359 38.236 18.2628 38.4091C18.0897 38.5822 17.8549 38.6794 17.6101 38.6794C17.3653 38.6794 17.1305 38.5822 16.9574 38.4091C16.7843 38.236 16.687 38.0012 16.687 37.7564V35.3564C16.687 33.6427 17.3678 31.9991 18.5796 30.7874C19.7913 29.5756 21.4348 28.8948 23.1486 28.8948C24.8623 28.8948 26.5058 29.5756 27.7175 30.7874C28.9293 31.9991 29.6101 33.6427 29.6101 35.3564V37.7564C29.6101 38.0012 29.5128 38.236 29.3397 38.4091C29.1666 38.5822 28.9318 38.6794 28.687 38.6794C28.4422 38.6794 28.2074 38.5822 28.0343 38.4091C27.8612 38.236 27.7639 38.0012 27.7639 37.7564V35.3564C27.7639 34.1323 27.2777 32.9584 26.4121 32.0928C25.5466 31.2272 24.3726 30.741 23.1486 30.741Z" fill="#1356BF"/>
<path fill-rule="evenodd" clip-rule="evenodd" d="M23.1486 27.972C24.1278 27.972 25.067 27.583 25.7594 26.8905C26.4519 26.1981 26.8409 25.2589 26.8409 24.2797C26.8409 23.3004 26.4519 22.3613 25.7594 21.6688C25.067 20.9764 24.1278 20.5874 23.1486 20.5874C22.1693 20.5874 21.2302 20.9764 20.5377 21.6688C19.8453 22.3613 19.4563 23.3004 19.4563 24.2797C19.4563 25.2589 19.8453 26.1981 20.5377 26.8905C21.2302 27.583 22.1693 27.972 23.1486 27.972ZM23.1486 29.8181C24.6175 29.8181 26.0262 29.2346 27.0649 28.196C28.1035 27.1573 28.687 25.7486 28.687 24.2797C28.687 22.8108 28.1035 21.4021 27.0649 20.3634C26.0262 19.3247 24.6175 18.7412 23.1486 18.7412C21.6797 18.7412 20.2709 19.3247 19.2323 20.3634C18.1936 21.4021 17.6101 22.8108 17.6101 24.2797C17.6101 25.7486 18.1936 27.1573 19.2323 28.196C20.2709 29.2346 21.6797 29.8181 23.1486 29.8181Z" fill="#1356BF"/>
<path fill-rule="evenodd" clip-rule="evenodd" d="M24.0716 45.9718C35.7965 45.9718 45.3023 36.4659 45.3023 24.741C45.3023 13.0161 35.7965 3.51022 24.0716 3.51022C12.3466 3.51022 2.84078 13.0161 2.84078 24.741C2.84078 36.4659 12.3466 45.9718 24.0716 45.9718ZM24.0716 47.8179C36.8174 47.8179 47.1485 37.4868 47.1485 24.741C47.1485 11.9951 36.8174 1.66406 24.0716 1.66406C11.3257 1.66406 0.994629 11.9951 0.994629 24.741C0.994629 37.4868 11.3257 47.8179 24.0716 47.8179Z" fill="#1356BF"/>
</g>
<defs>
<clipPath id="clip0_5020_11106">
<rect width="48" height="48" fill="white" transform="translate(0.0715332 0.741211)"/>
</clipPath>
</defs>
</svg>
