<svg width="24" height="25" viewBox="0 0 24 25" fill="none" xmlns="http://www.w3.org/2000/svg">
<path d="M6 19.8083H9V14.8083C9 14.525 9.096 14.2877 9.288 14.0963C9.48 13.905 9.71733 13.809 10 13.8083H14C14.2833 13.8083 14.521 13.9043 14.713 14.0963C14.905 14.2884 15.0007 14.5257 15 14.8083V19.8083H18V10.8083L12 6.30835L6 10.8083V19.8083ZM4 19.8083V10.8083C4 10.4917 4.071 10.1917 4.213 9.90835C4.355 9.62502 4.55067 9.39168 4.8 9.20835L10.8 4.70835C11.15 4.44168 11.55 4.30835 12 4.30835C12.45 4.30835 12.85 4.44168 13.2 4.70835L19.2 9.20835C19.45 9.39168 19.646 9.62502 19.788 9.90835C19.93 10.1917 20.0007 10.4917 20 10.8083V19.8083C20 20.3583 19.804 20.8293 19.412 21.2213C19.02 21.6133 18.5493 21.809 18 21.8083H14C13.7167 21.8083 13.4793 21.7123 13.288 21.5203C13.0967 21.3284 13.0007 21.091 13 20.8083V15.8083H11V20.8083C11 21.0917 10.904 21.3293 10.712 21.5213C10.52 21.7133 10.2827 21.809 10 21.8083H6C5.45 21.8083 4.97933 21.6127 4.588 21.2213C4.19667 20.83 4.00067 20.359 4 19.8083Z" fill="#365B85"/>
</svg>
